<svg width="275" height="81" viewBox="0 0 275 81" fill="none" xmlns="http://www.w3.org/2000/svg">
<path d="M112.352 64V18.816H122.4V64H112.352ZM120.032 64V55.296H144.8V64H120.032ZM120.032 45.12V36.736H142.56V45.12H120.032ZM120.032 27.456V18.816H144.48V27.456H120.032Z" fill="#101010"/>
<path d="M170.095 64L162.607 51.904L160.495 50.56L148.271 32.896H159.727L166.703 44.224L168.751 45.504L181.423 64H170.095ZM147.695 64L160.431 45.888L165.999 52.16L158.383 64H147.695ZM168.687 50.496L163.119 44.224L170.159 32.896H180.783L168.687 50.496ZM197.323 64.64C194.464 64.64 191.904 63.936 189.643 62.528C187.424 61.12 185.654 59.2 184.331 56.768C183.051 54.336 182.411 51.5627 182.411 48.448C182.411 45.3333 183.051 42.56 184.331 40.128C185.654 37.696 187.424 35.776 189.643 34.368C191.904 32.96 194.464 32.256 197.323 32.256C199.414 32.256 201.291 32.6613 202.955 33.472C204.662 34.2827 206.048 35.4133 207.115 36.864C208.182 38.272 208.779 39.8933 208.907 41.728V55.168C208.779 57.0027 208.182 58.6453 207.115 60.096C206.091 61.504 204.726 62.6133 203.019 63.424C201.312 64.2347 199.414 64.64 197.323 64.64ZM199.307 55.808C201.398 55.808 203.083 55.1253 204.363 53.76C205.643 52.352 206.283 50.5813 206.283 48.448C206.283 46.9973 205.984 45.7173 205.387 44.608C204.832 43.4987 204.022 42.6453 202.955 42.048C201.931 41.408 200.736 41.088 199.371 41.088C198.006 41.088 196.79 41.408 195.723 42.048C194.699 42.6453 193.867 43.4987 193.227 44.608C192.63 45.7173 192.331 46.9973 192.331 48.448C192.331 49.856 192.63 51.1147 193.227 52.224C193.824 53.3333 194.656 54.208 195.723 54.848C196.79 55.488 197.984 55.808 199.307 55.808ZM205.899 64V55.616L207.371 48.064L205.899 40.512V32.896H215.499V64H205.899ZM222.394 64V32.896H232.186V64H222.394ZM242.298 64V45.824C242.298 44.2453 241.807 43.0293 240.826 42.176C239.887 41.28 238.714 40.832 237.306 40.832C236.324 40.832 235.45 41.0453 234.682 41.472C233.914 41.856 233.295 42.4107 232.826 43.136C232.399 43.8613 232.186 44.7573 232.186 45.824L228.41 44.16C228.41 41.6853 228.943 39.5733 230.01 37.824C231.076 36.032 232.527 34.6667 234.362 33.728C236.196 32.7467 238.266 32.256 240.57 32.256C242.746 32.256 244.687 32.7467 246.394 33.728C248.143 34.7093 249.53 36.0747 250.554 37.824C251.578 39.5733 252.09 41.664 252.09 44.096V64H242.298ZM262.202 64V45.824C262.202 44.2453 261.711 43.0293 260.73 42.176C259.791 41.28 258.618 40.832 257.21 40.832C256.228 40.832 255.354 41.0453 254.586 41.472C253.818 41.856 253.199 42.4107 252.729 43.136C252.303 43.8613 252.09 44.7573 252.09 45.824L246.458 45.056C246.543 42.4107 247.162 40.1493 248.314 38.272C249.508 36.352 251.066 34.88 252.986 33.856C254.948 32.7893 257.146 32.256 259.578 32.256C261.967 32.256 264.079 32.768 265.914 33.792C267.791 34.7733 269.263 36.2027 270.33 38.08C271.439 39.9147 271.994 42.1333 271.994 44.736V64H262.202Z" fill="#57BE6C"/>
<path d="M25.664 64.704C22.3787 64.704 19.2853 64.1067 16.384 62.912C13.5253 61.7173 11.0293 60.0747 8.896 57.984C6.76267 55.8507 5.07733 53.376 3.84 50.56C2.64533 47.7013 2.048 44.6293 2.048 41.344C2.048 38.0587 2.66667 35.008 3.904 32.192C5.14133 29.376 6.848 26.9227 9.024 24.832C11.2427 22.6987 13.824 21.056 16.768 19.904C19.712 18.7093 22.8693 18.112 26.24 18.112C30.1227 18.112 33.6427 18.816 36.8 20.224C40 21.632 42.6453 23.5733 44.736 26.048L37.888 32.896C36.4373 31.0187 34.7307 29.6107 32.768 28.672C30.8053 27.7333 28.5867 27.264 26.112 27.264C23.4667 27.264 21.0987 27.8613 19.008 29.056C16.9173 30.208 15.2747 31.8507 14.08 33.984C12.928 36.0747 12.352 38.528 12.352 41.344C12.352 44.16 12.928 46.6347 14.08 48.768C15.232 50.9013 16.8107 52.5653 18.816 53.76C20.8213 54.9547 23.1253 55.552 25.728 55.552C28.3733 55.552 30.6133 55.0613 32.448 54.08C34.3253 53.056 35.7547 51.6053 36.736 49.728C37.76 47.808 38.272 45.4827 38.272 42.752L44.928 47.232L24.768 46.912V38.4H48.512V39.872C48.512 45.2907 47.5307 49.856 45.568 53.568C43.648 57.2373 40.96 60.0107 37.504 61.888C34.0907 63.7653 30.144 64.704 25.664 64.704ZM68.682 64.704C65.482 64.704 62.5807 64 59.978 62.592C57.418 61.1413 55.3913 59.1787 53.898 56.704C52.4047 54.2293 51.658 51.456 51.658 48.384C51.658 45.312 52.4047 42.56 53.898 40.128C55.3913 37.696 57.418 35.776 59.978 34.368C62.538 32.9173 65.4393 32.192 68.682 32.192C71.9247 32.192 74.826 32.896 77.386 34.304C79.946 35.712 81.9727 37.6533 83.466 40.128C84.9593 42.56 85.706 45.312 85.706 48.384C85.706 51.456 84.9593 54.2293 83.466 56.704C81.9727 59.1787 79.946 61.1413 77.386 62.592C74.826 64 71.9247 64.704 68.682 64.704ZM68.682 55.808C70.09 55.808 71.3273 55.5093 72.394 54.912C73.4607 54.272 74.2713 53.3973 74.826 52.288C75.4233 51.136 75.722 49.8347 75.722 48.384C75.722 46.9333 75.4233 45.6747 74.826 44.608C74.2287 43.4987 73.3967 42.6453 72.33 42.048C71.306 41.408 70.09 41.088 68.682 41.088C67.3167 41.088 66.1007 41.408 65.034 42.048C63.9673 42.6453 63.1353 43.4987 62.538 44.608C61.9407 45.7173 61.642 46.9973 61.642 48.448C61.642 49.856 61.9407 51.136 62.538 52.288C63.1353 53.3973 63.9673 54.272 65.034 54.912C66.1007 55.5093 67.3167 55.808 68.682 55.808ZM103.829 64.64C100.885 64.64 98.261 63.936 95.957 62.528C93.6957 61.12 91.9037 59.2 90.581 56.768C89.301 54.336 88.661 51.5627 88.661 48.448C88.661 45.3333 89.301 42.56 90.581 40.128C91.9037 37.696 93.6957 35.776 95.957 34.368C98.261 32.96 100.885 32.256 103.829 32.256C105.962 32.256 107.882 32.6613 109.589 33.472C111.338 34.2827 112.768 35.4133 113.877 36.864C115.029 38.272 115.669 39.8933 115.797 41.728V54.848C115.669 56.6827 115.05 58.3467 113.941 59.84C112.832 61.2907 111.402 62.464 109.653 63.36C107.904 64.2133 105.962 64.64 103.829 64.64ZM105.557 55.808C106.965 55.808 108.181 55.5093 109.205 54.912C110.229 54.272 111.04 53.3973 111.637 52.288C112.234 51.1787 112.533 49.8987 112.533 48.448C112.533 46.9973 112.234 45.7387 111.637 44.672C111.082 43.5627 110.272 42.688 109.205 42.048C108.181 41.408 106.986 41.088 105.621 41.088C104.256 41.088 103.04 41.408 101.973 42.048C100.949 42.688 100.117 43.5627 99.477 44.672C98.8797 45.7813 98.581 47.04 98.581 48.448C98.581 49.856 98.8797 51.1147 99.477 52.224C100.074 53.3333 100.906 54.208 101.973 54.848C103.04 55.488 104.234 55.808 105.557 55.808ZM121.749 64H112.149V55.616L113.621 48.064L111.957 40.512V17.536H121.749V64Z" fill="#101010"/>
</svg>
