<svg width="61" height="81" viewBox="0 0 61 81" fill="none" xmlns="http://www.w3.org/2000/svg">
<path d="M25.352 64V18.816H35.4V64H25.352ZM33.032 64V55.296H57.8V64H33.032ZM33.032 45.12V36.736H55.56V45.12H33.032ZM33.032 27.456V18.816H57.48V27.456H33.032Z" fill="#57BE6C"/>
<path d="M16.704 64.64C13.76 64.64 11.136 63.936 8.832 62.528C6.57067 61.12 4.77867 59.2 3.456 56.768C2.176 54.336 1.536 51.5627 1.536 48.448C1.536 45.3333 2.176 42.56 3.456 40.128C4.77867 37.696 6.57067 35.776 8.832 34.368C11.136 32.96 13.76 32.256 16.704 32.256C18.8373 32.256 20.7573 32.6613 22.464 33.472C24.2133 34.2827 25.6427 35.4133 26.752 36.864C27.904 38.272 28.544 39.8933 28.672 41.728V54.848C28.544 56.6827 27.9253 58.3467 26.816 59.84C25.7067 61.2907 24.2773 62.464 22.528 63.36C20.7787 64.2133 18.8373 64.64 16.704 64.64ZM18.432 55.808C19.84 55.808 21.056 55.5093 22.08 54.912C23.104 54.272 23.9147 53.3973 24.512 52.288C25.1093 51.1787 25.408 49.8987 25.408 48.448C25.408 46.9973 25.1093 45.7387 24.512 44.672C23.9573 43.5627 23.1467 42.688 22.08 42.048C21.056 41.408 19.8613 41.088 18.496 41.088C17.1307 41.088 15.9147 41.408 14.848 42.048C13.824 42.688 12.992 43.5627 12.352 44.672C11.7547 45.7813 11.456 47.04 11.456 48.448C11.456 49.856 11.7547 51.1147 12.352 52.224C12.9493 53.3333 13.7813 54.208 14.848 54.848C15.9147 55.488 17.1093 55.808 18.432 55.808ZM34.624 64H25.024V55.616L26.496 48.064L24.832 40.512V17.536H34.624V64Z" fill="#101010"/>
</svg>
